<svg xmlns="http://www.w3.org/2000/svg" xmlns:xlink="http://www.w3.org/1999/xlink" fill="none" version="1.1" width="25" height="25" viewBox="0 0 25 25"><defs><clipPath id="master_svg0_50_83"><rect x="0" y="0" width="25" height="25" rx="0"/></clipPath></defs><g clip-path="url(#master_svg0_50_83)"><g><path d="M23.9438,22.808C23.9438,23.4339,23.4348,23.9437,22.808,23.9437L11.7955,23.9437C11.1705,23.9437,10.6616,23.4348,10.6616,22.808L10.6616,15.3955L13.4589,15.3955C14.5282,15.3946,15.395,14.5282,15.3964,13.4589L15.3964,10.6607L22.808,10.6607C23.4339,10.6607,23.9438,11.1696,23.9438,11.7964L23.9438,22.808ZM22.808,9.60536L15.3955,9.60536L15.3955,1.93661C15.3941,0.867312,14.5273,0.000982938,13.458,0L1.9375,0C0.867856,0.000984414,0.00098455,0.867856,0,1.9375L0,13.4589C0.000984797,14.5286,0.867857,15.3954,1.9375,15.3964L9.60446,15.3964L9.60446,22.808C9.60594,24.0173,10.5854,24.9975,11.7946,25L22.8071,25C24.0175,24.999,24.9985,24.0184,25,22.808L25,11.7964C24.998,10.5868,24.0177,9.60683,22.808,9.60536ZM8.16696,7.78393L10.3384,7.78393L10.3384,6.00714L8.16696,6.00714L8.16696,7.78214L8.16696,7.78393ZM4.93839,7.78393L7.10982,7.78393L7.10982,6.00714L4.93839,6.00714L4.93839,7.78214L4.93839,7.78393ZM11.3938,5.83125L11.3938,7.95893C11.3938,8.44493,11.0003,8.83919,10.5143,8.84018L8.16607,8.84018L8.16607,11.5116C8.15442,11.7948,7.92142,12.0185,7.63795,12.0185C7.35447,12.0185,7.12147,11.7948,7.10982,11.5116L7.10982,8.84018L4.7625,8.84018C4.27615,8.83919,3.88254,8.44439,3.88304,7.95804L3.88304,5.83125C3.88304,5.34643,4.27857,4.95179,4.76339,4.95179L7.11161,4.95179L7.11161,4.02054C7.12326,3.7373,7.35626,3.51369,7.63973,3.51369C7.9232,3.51369,8.15621,3.7373,8.16786,4.02054L8.16786,4.95179L10.5152,4.95179C11,4.95179,11.3938,5.34643,11.3938,5.83125ZM18.1911,3.15179C17.9001,3.12809,17.6835,2.87307,17.7071,2.58214C17.7341,2.29388,17.9862,2.07983,18.275,2.1C19.8777,2.225,22.9321,3.38661,23.025,6.88214C23.032,7.17391,22.8016,7.41632,22.5098,7.42411L22.4955,7.42411C22.2095,7.42323,21.976,7.19491,21.9688,6.90893C21.8786,3.49821,18.342,3.16429,18.1911,3.15L18.1911,3.15179ZM7.09286,21.3991C7.36758,21.4656,7.54139,21.7364,7.48738,22.0138C7.43337,22.2913,7.17066,22.4771,6.89107,22.4357C2.81518,21.6438,2.3125,17.65,2.30714,17.6107C2.26837,17.3179,2.47703,17.0502,2.77042,17.0162C3.0638,16.9823,3.32807,17.1954,3.35714,17.4893C3.37321,17.6232,3.7875,20.7563,7.09286,21.4L7.09286,21.3991ZM16.7205,18.3741L17.692,15.9098L18.6366,18.3741L16.7196,18.3741L16.7205,18.3741ZM18.1911,14.2625C18.113,14.059,17.918,13.9242,17.7,13.9232L17.6973,13.9232C17.4804,13.9235,17.2857,14.0563,17.2062,14.258L14.7554,20.483C14.6652,20.7499,14.8001,21.0405,15.0621,21.1439C15.3241,21.2473,15.6212,21.1271,15.7375,20.8705L16.3054,19.4313L19.042,19.4313L19.592,20.8661C19.6909,21.1467,20.002,21.2904,20.2798,21.1838C20.5577,21.0772,20.6928,20.7623,20.5786,20.4875L18.1911,14.2625Z" fill="#000000" fill-opacity="1"/></g></g></svg>